<?xml version="1.0" standalone="no"?>
<!DOCTYPE svg PUBLIC "-//W3C//DTD SVG 20010904//EN"
 "http://www.w3.org/TR/2001/REC-SVG-20010904/DTD/svg10.dtd">
<svg version="1.0" xmlns="http://www.w3.org/2000/svg"
 width="2560.000000pt" height="215.000000pt" viewBox="0 0 2560.000000 215.000000"
 preserveAspectRatio="xMidYMid meet">

<g transform="translate(0.000000,215.000000) scale(0.100000,-0.100000)"
fill="#000000" stroke="none">
<path d="M23850 1120 l0 -1020 105 0 105 0 2 756 3 757 746 -784 c411 -431
756 -793 768 -803 l21 -19 0 1031 0 1032 -105 0 -105 0 -2 -775 -3 -775 -764
810 c-420 445 -765 810 -767 810 -2 0 -4 -459 -4 -1020z"/>
<path d="M14275 2089 c-357 -34 -570 -381 -420 -685 25 -51 53 -88 98 -130 81
-75 132 -105 347 -204 96 -44 199 -95 229 -113 72 -43 140 -112 164 -166 75
-170 -22 -390 -213 -484 -86 -43 -205 -50 -291 -18 -114 43 -205 144 -249 276
-22 67 -28 71 -76 56 -16 -6 -61 -19 -101 -31 l-72 -21 20 -52 c90 -229 239
-372 439 -423 97 -25 256 -22 345 6 191 60 342 208 400 394 83 259 5 473 -225
622 -37 23 -167 92 -291 153 -304 149 -362 203 -362 333 0 167 176 308 368
296 112 -7 193 -56 278 -168 l26 -34 80 54 79 55 -21 39 c-34 60 -116 143
-180 180 -93 55 -227 78 -372 65z"/>
<path d="M16798 2089 c-322 -35 -528 -311 -453 -604 32 -121 119 -226 255
-305 37 -22 139 -72 226 -112 196 -88 266 -129 324 -187 70 -71 85 -109 85
-221 0 -88 -3 -100 -33 -159 -43 -81 -112 -150 -193 -193 -61 -31 -69 -33
-169 -33 -94 0 -111 3 -161 28 -76 37 -152 120 -195 212 -19 40 -34 80 -34 89
0 8 -5 18 -11 21 -14 10 -210 -46 -216 -61 -7 -20 50 -146 101 -223 113 -170
290 -262 506 -264 112 -1 180 13 275 59 129 61 228 163 289 296 101 220 68
440 -90 595 -76 74 -176 135 -394 237 -191 90 -290 153 -334 214 -28 40 -31
51 -31 120 0 89 17 131 76 190 63 63 151 104 234 110 130 8 224 -36 310 -145
22 -28 44 -52 48 -52 7 -1 123 76 150 100 13 11 -54 108 -110 161 -111 102
-270 147 -455 127z"/>
<path d="M21249 2084 c-359 -65 -663 -329 -783 -682 -60 -176 -71 -415 -27
-583 108 -415 462 -707 909 -748 307 -28 598 76 809 291 99 100 146 166 203
283 187 386 122 816 -172 1130 -235 252 -598 371 -939 309z m440 -233 c271
-92 468 -301 542 -576 45 -166 24 -382 -51 -542 -98 -211 -286 -371 -520 -445
-64 -20 -96 -23 -220 -23 -160 0 -232 16 -355 77 -390 196 -568 660 -404 1055
99 237 335 427 600 483 24 5 105 8 179 6 121 -3 145 -6 229 -35z"/>
<path d="M578 2079 c-130 -14 -235 -64 -323 -153 -182 -182 -190 -457 -19
-636 78 -82 149 -125 381 -233 219 -103 267 -132 331 -202 61 -65 76 -105 76
-200 1 -70 -3 -89 -31 -148 -42 -88 -116 -165 -199 -208 -56 -28 -79 -34 -152
-37 -72 -3 -97 0 -145 18 -113 43 -212 154 -254 287 -9 29 -21 53 -27 53 -16
0 -200 -52 -208 -59 -12 -10 54 -161 99 -227 120 -175 294 -266 513 -267 175
0 314 56 435 178 223 222 243 551 48 756 -81 85 -156 132 -417 259 -202 98
-235 118 -285 168 -79 80 -96 139 -66 239 21 71 89 144 173 185 61 30 74 33
162 33 133 -1 191 -31 292 -154 l36 -45 72 50 c40 27 75 55 77 61 7 17 -78
134 -124 173 -105 87 -275 129 -445 109z"/>
<path d="M6269 2079 c-345 -36 -655 -241 -797 -524 -41 -82 -78 -204 -92 -304
-18 -119 -8 -333 20 -436 109 -403 467 -699 900 -744 185 -20 451 43 613 145
l57 36 0 124 c0 68 -4 124 -8 124 -5 0 -19 -12 -33 -26 -70 -75 -259 -172
-388 -200 -88 -18 -220 -18 -300 2 -82 20 -209 78 -292 134 -95 64 -236 212
-286 300 -146 261 -134 552 33 806 149 227 420 374 686 374 54 0 134 -7 176
-15 104 -21 259 -98 340 -169 35 -31 65 -56 68 -56 2 0 4 60 4 133 l0 134 -97
51 c-122 63 -243 99 -381 112 -117 11 -113 11 -223 -1z"/>
<path d="M9195 2084 c-212 -31 -407 -115 -559 -240 -144 -118 -243 -282 -297
-490 -20 -77 -23 -113 -23 -264 0 -192 9 -250 65 -389 129 -323 451 -568 818
-622 203 -29 481 32 664 147 l57 36 0 124 c0 68 -2 124 -5 124 -3 0 -36 -25
-73 -56 -78 -65 -236 -145 -337 -170 -107 -27 -261 -25 -355 4 -294 93 -535
325 -619 595 -57 186 -25 427 80 602 45 76 157 195 235 251 78 55 207 116 299
140 103 27 284 24 389 -5 106 -29 219 -89 305 -162 39 -32 73 -59 76 -59 3 0
5 58 5 130 l0 130 -42 27 c-77 48 -203 102 -289 123 -82 21 -320 35 -394 24z"/>
<path d="M2620 1353 c0 -799 -1 -787 68 -917 64 -123 193 -240 336 -305 190
-87 452 -84 633 7 166 84 287 225 347 404 l26 77 0 725 0 726 -110 0 -110 0 0
-705 c0 -483 -4 -721 -11 -757 -34 -158 -160 -280 -344 -333 -78 -23 -227 -16
-305 14 -117 45 -231 146 -283 250 l-32 66 -3 732 -3 733 -104 0 -105 0 0
-717z"/>
<path d="M11350 1085 l0 -985 510 0 510 0 0 95 0 95 -400 0 -400 0 0 390 0
390 385 0 385 0 0 100 0 100 -385 0 -385 0 0 295 0 295 400 0 400 0 0 105 0
105 -510 0 -510 0 0 -985z"/>
<path d="M18830 1085 l0 -985 115 0 115 0 0 985 0 985 -115 0 -115 0 0 -985z"/>
</g>
</svg>
