<svg version="1.0" xmlns="http://www.w3.org/2000/svg" width="3413.333" height="286.667" viewBox="0 0 2560 215"><path d="M2385 103v102h21l.2-75.6.3-75.7 74.6 78.4c41.1 43.1 75.6 79.3 76.8 80.3l2.1 1.9V8h-21l-.2 77.5-.3 77.5-76.4-81c-42-44.5-76.5-81-76.7-81s-.4 45.9-.4 102zM1427.5 6.1c-35.7 3.4-57 38.1-42 68.5 2.5 5.1 5.3 8.8 9.8 13 8.1 7.5 13.2 10.5 34.7 20.4 9.6 4.4 19.9 9.5 22.9 11.3 7.2 4.3 14 11.2 16.4 16.6 7.5 17-2.2 39-21.3 48.4-8.6 4.3-20.5 5-29.1 1.8-11.4-4.3-20.5-14.4-24.9-27.6-2.2-6.7-2.8-7.1-7.6-5.6-1.6.6-6.1 1.9-10.1 3.1l-7.2 2.1 2 5.2c9 22.9 23.9 37.2 43.9 42.3 9.7 2.5 25.6 2.2 34.5-.6 19.1-6 34.2-20.8 40-39.4 8.3-25.9.5-47.3-22.5-62.2-3.7-2.3-16.7-9.2-29.1-15.3-30.4-14.9-36.2-20.3-36.2-33.3 0-16.7 17.6-30.8 36.8-29.6 11.2.7 19.3 5.6 27.8 16.8l2.6 3.4 8-5.4 7.9-5.5-2.1-3.9c-3.4-6-11.6-14.3-18-18-9.3-5.5-22.7-7.8-37.2-6.5zm252.3 0c-32.2 3.5-52.8 31.1-45.3 60.4 3.2 12.1 11.9 22.6 25.5 30.5 3.7 2.2 13.9 7.2 22.6 11.2 19.6 8.8 26.6 12.9 32.4 18.7 7 7.1 8.5 10.9 8.5 22.1 0 8.8-.3 10-3.3 15.9-4.3 8.1-11.2 15-19.3 19.3-6.1 3.1-6.9 3.3-16.9 3.3-9.4 0-11.1-.3-16.1-2.8-7.6-3.7-15.2-12-19.5-21.2-1.9-4-3.4-8-3.4-8.9 0-.8-.5-1.8-1.1-2.1-1.4-1-21 4.6-21.6 6.1-.7 2 5 14.6 10.1 22.3 11.3 17 29 26.2 50.6 26.4 11.2.1 18-1.3 27.5-5.9 12.9-6.1 22.8-16.3 28.9-29.6 10.1-22 6.8-44-9-59.5-7.6-7.4-17.6-13.5-39.4-23.7-19.1-9-29-15.3-33.4-21.4-2.8-4-3.1-5.1-3.1-12 0-8.9 1.7-13.1 7.6-19 6.3-6.3 15.1-10.4 23.4-11 13-.8 22.4 3.6 31 14.5 2.2 2.8 4.4 5.2 4.8 5.2.7.1 12.3-7.6 15-10 1.3-1.1-5.4-10.8-11-16.1-11.1-10.2-27-14.7-45.5-12.7zm445.1.5c-35.9 6.5-66.3 32.9-78.3 68.2-6 17.6-7.1 41.5-2.7 58.3 10.8 41.5 46.2 70.7 90.9 74.8 30.7 2.8 59.8-7.6 80.9-29.1 9.9-10 14.6-16.6 20.3-28.3 18.7-38.6 12.2-81.6-17.2-113-23.5-25.2-59.8-37.1-93.9-30.9zm44 23.3c27.1 9.2 46.8 30.1 54.2 57.6 4.5 16.6 2.4 38.2-5.1 54.2-9.8 21.1-28.6 37.1-52 44.5-6.4 2-9.6 2.3-22 2.3-16 0-23.2-1.6-35.5-7.7-39-19.6-56.8-66-40.4-105.5 9.9-23.7 33.5-42.7 60-48.3 2.4-.5 10.5-.8 17.9-.6 12.1.3 14.5.6 22.9 3.5zM57.8 7.1c-13 1.4-23.5 6.4-32.3 15.3C7.3 40.6 6.5 68.1 23.6 86c7.8 8.2 14.9 12.5 38.1 23.3 21.9 10.3 26.7 13.2 33.1 20.2 6.1 6.5 7.6 10.5 7.6 20 .1 7-.3 8.9-3.1 14.8-4.2 8.8-11.6 16.5-19.9 20.8-5.6 2.8-7.9 3.4-15.2 3.7-7.2.3-9.7 0-14.5-1.8-11.3-4.3-21.2-15.4-25.4-28.7-.9-2.9-2.1-5.3-2.7-5.3-1.6 0-20 5.2-20.8 5.9-1.2 1 5.4 16.1 9.9 22.7 12 17.5 29.4 26.6 51.3 26.7 17.5 0 31.4-5.6 43.5-17.8 22.3-22.2 24.3-55.1 4.8-75.6-8.1-8.5-15.6-13.2-41.7-25.9-20.2-9.8-23.5-11.8-28.5-16.8-7.9-8-9.6-13.9-6.6-23.9 2.1-7.1 8.9-14.4 17.3-18.5 6.1-3 7.4-3.3 16.2-3.3 13.3.1 19.1 3.1 29.2 15.4l3.6 4.5 7.2-5c4-2.7 7.5-5.5 7.7-6.1.7-1.7-7.8-13.4-12.4-17.3C91.8 9.3 74.8 5.1 57.8 7.1zm569.1 0c-34.5 3.6-65.5 24.1-79.7 52.4-4.1 8.2-7.8 20.4-9.2 30.4-1.8 11.9-.8 33.3 2 43.6 10.9 40.3 46.7 69.9 90 74.4 18.5 2 45.1-4.3 61.3-14.5l5.7-3.6v-12.4c0-6.8-.4-12.4-.8-12.4-.5 0-1.9 1.2-3.3 2.6-7 7.5-25.9 17.2-38.8 20-8.8 1.8-22 1.8-30-.2-8.2-2-20.9-7.8-29.2-13.4-9.5-6.4-23.6-21.2-28.6-30-14.6-26.1-13.4-55.2 3.3-80.6 14.9-22.7 42-37.4 68.6-37.4 5.4 0 13.4.7 17.6 1.5 10.4 2.1 25.9 9.8 34 16.9 3.5 3.1 6.5 5.6 6.8 5.6.2 0 .4-6 .4-13.3V23.3l-9.7-5.1C675.1 11.9 663 8.3 649.2 7c-11.7-1.1-11.3-1.1-22.3.1zm292.6-.5c-21.2 3.1-40.7 11.5-55.9 24-14.4 11.8-24.3 28.2-29.7 49-2 7.7-2.3 11.3-2.3 26.4 0 19.2.9 25 6.5 38.9 12.9 32.3 45.1 56.8 81.8 62.2 20.3 2.9 48.1-3.2 66.4-14.7l5.7-3.6v-12.4c0-6.8-.2-12.4-.5-12.4s-3.6 2.5-7.3 5.6c-7.8 6.5-23.6 14.5-33.7 17-10.7 2.7-26.1 2.5-35.5-.4-29.4-9.3-53.5-32.5-61.9-59.5-5.7-18.6-2.5-42.7 8-60.2 4.5-7.6 15.7-19.5 23.5-25.1 7.8-5.5 20.7-11.6 29.9-14 10.3-2.7 28.4-2.4 38.9.5 10.6 2.9 21.9 8.9 30.5 16.2 3.9 3.2 7.3 5.9 7.6 5.9s.5-5.8.5-13V24l-4.2-2.7c-7.7-4.8-20.3-10.2-28.9-12.3-8.2-2.1-32-3.5-39.4-2.4zM262 79.7c0 79.9-.1 78.7 6.8 91.7 6.4 12.3 19.3 24 33.6 30.5 19 8.7 45.2 8.4 63.3-.7 16.6-8.4 28.7-22.5 34.7-40.4l2.6-7.7V8h-22v70.5c0 48.3-.4 72.1-1.1 75.7-3.4 15.8-16 28-34.4 33.3-7.8 2.3-22.7 1.6-30.5-1.4-11.7-4.5-23.1-14.6-28.3-25l-3.2-6.6-.3-73.2-.3-73.3H262v71.7zm873 26.8V205h102v-19h-80v-78h77V88h-77V29h80V8h-102v98.5zm748 0V205h23V8h-23v98.5z"/></svg>