<?xml version="1.0" standalone="no"?>
<!DOCTYPE svg PUBLIC "-//W3C//DTD SVG 20010904//EN"
 "http://www.w3.org/TR/2001/REC-SVG-20010904/DTD/svg10.dtd">
<svg version="1.0" xmlns="http://www.w3.org/2000/svg"
 width="1450.000000pt" height="210.000000pt" viewBox="0 0 1450.000000 210.000000"
 preserveAspectRatio="xMidYMid meet">

<g transform="translate(0.000000,210.000000) scale(0.100000,-0.100000)"
fill="#000000" stroke="none">
<path d="M10095 2080 c-161 -26 -319 -85 -442 -167 -143 -94 -295 -275 -347
-415 -76 -202 -45 -431 74 -542 84 -78 159 -108 388 -151 199 -38 242 -62 242
-132 0 -71 -74 -115 -205 -121 -78 -4 -101 -1 -170 23 -89 29 -167 74 -249
141 l-55 44 -99 -176 c-55 -96 -102 -172 -105 -167 -3 5 -76 366 -161 803 -86
437 -161 805 -166 818 l-10 22 -387 0 c-221 0 -394 -4 -403 -10 -17 -11 -1029
-1992 -1023 -2003 2 -4 172 -7 377 -7 287 0 376 3 383 13 6 6 27 57 47 111 20
55 42 108 47 118 9 17 26 18 292 16 l282 -3 7 -70 c4 -38 10 -94 13 -122 l6
-53 389 0 390 0 -11 26 c-5 15 -8 28 -6 31 2 2 53 -8 113 -23 226 -53 303 -66
429 -71 257 -10 501 58 690 192 83 58 195 179 243 261 141 239 131 549 -22
681 -89 76 -173 112 -398 169 -151 37 -170 45 -205 77 -29 26 -29 57 -1 92 68
87 242 87 426 0 41 -19 86 -44 102 -55 22 -16 30 -17 37 -8 4 7 67 121 140
253 l132 240 -52 32 c-75 47 -186 91 -285 114 -101 23 -352 33 -447 19z
m-1756 -1001 c10 -167 17 -307 14 -311 -2 -5 -71 -8 -153 -8 -82 0 -151 3
-153 8 -7 12 228 613 244 622 7 5 18 5 22 1 5 -5 17 -145 26 -312z"/>
<path d="M11602 2075 c-341 -62 -593 -241 -736 -523 -61 -120 -84 -310 -52
-430 37 -136 137 -230 296 -276 30 -9 118 -27 195 -42 209 -38 262 -69 235
-135 -16 -38 -72 -87 -129 -112 -70 -31 -183 -21 -283 25 -87 41 -154 85 -216
142 -23 21 -44 37 -46 35 -9 -9 -306 -551 -306 -558 0 -4 44 -26 98 -48 484
-203 953 -188 1278 42 87 62 211 199 268 294 26 46 52 79 55 74 4 -4 17 -31
28 -59 106 -263 380 -443 734 -485 459 -53 930 126 1196 456 175 217 256 426
269 695 13 261 -88 522 -262 678 -170 152 -379 228 -664 239 -451 18 -849
-166 -1093 -506 -101 -139 -170 -288 -233 -499 -2 -8 -16 2 -36 25 -100 116
-188 163 -369 198 -224 44 -231 46 -261 75 -34 34 -36 68 -6 105 81 104 312
83 523 -48 l40 -25 138 241 c76 133 139 247 139 252 2 17 -131 82 -242 119
-192 64 -388 82 -558 51z m1948 -676 c121 -56 190 -165 190 -298 0 -217 -173
-423 -388 -462 -179 -34 -351 83 -388 263 -33 158 54 355 199 451 123 82 272
99 387 46z"/>
<path d="M1764 2047 c-10 -27 -313 -1991 -308 -1999 3 -4 308 -8 678 -8 527 0
676 3 683 12 9 12 83 470 83 511 0 16 -22 17 -315 17 -245 0 -315 3 -315 13 0
22 29 177 35 187 4 6 115 10 286 10 153 0 279 1 279 3 0 1 16 114 35 250 19
137 35 253 35 258 0 5 -119 9 -280 9 -164 0 -280 4 -280 9 0 29 44 187 53 193
7 4 146 8 309 8 l297 0 6 33 c15 90 75 482 75 494 0 19 -1348 20 -1356 0z"/>
<path d="M3250 2059 c-1 -2 -72 -457 -158 -1010 l-157 -1007 525 3 c581 4 612
6 808 70 365 118 611 355 722 694 48 147 63 267 58 464 -4 155 -7 180 -32 252
-79 231 -248 379 -534 469 -169 53 -229 58 -749 63 -266 3 -483 4 -483 2z
m870 -660 c121 -56 180 -144 188 -279 13 -224 -110 -393 -336 -460 -77 -23
-218 -33 -216 -15 1 6 30 185 65 399 l64 388 90 -4 c69 -3 103 -10 145 -29z"/>
<path d="M106 2038 c-3 -7 -16 -98 -31 -203 -15 -104 -35 -241 -46 -304 -11
-63 -17 -116 -15 -118 2 -3 93 1 201 7 107 7 198 10 201 7 3 -3 -42 -308 -100
-678 -58 -371 -106 -680 -106 -686 0 -10 79 -13 360 -13 242 0 360 3 360 10 0
20 212 1365 216 1369 2 2 89 -2 195 -8 105 -7 194 -10 197 -7 3 3 27 135 53
293 26 159 50 300 53 316 l6 27 -771 0 c-607 0 -770 -3 -773 -12z"/>
<path d="M5748 1053 c-85 -549 -153 -1001 -151 -1005 6 -11 1321 -10 1327 1 6
9 96 589 96 616 0 13 -40 15 -305 15 -168 0 -305 3 -305 6 0 3 47 305 105 671
58 365 105 671 105 679 0 12 -54 14 -358 14 l-358 0 -156 -997z"/>
</g>
</svg>
