<?xml version="1.0" standalone="no"?>
<!DOCTYPE svg PUBLIC "-//W3C//DTD SVG 20010904//EN"
 "http://www.w3.org/TR/2001/REC-SVG-20010904/DTD/svg10.dtd">
<svg version="1.0" xmlns="http://www.w3.org/2000/svg"
 width="976.000000pt" height="211.000000pt" viewBox="0 0 976.000000 211.000000"
 preserveAspectRatio="xMidYMid meet">

<g transform="translate(0.000000,211.000000) scale(0.100000,-0.100000)"
fill="#000000" stroke="none">
<path d="M4475 2090 c-85 -22 -135 -66 -162 -144 -16 -44 -18 -89 -18 -342 l0
-290 39 -78 c32 -66 55 -95 144 -180 196 -188 230 -223 251 -264 19 -38 21
-58 21 -260 0 -233 -2 -242 -50 -242 -48 0 -50 8 -50 252 l0 228 -175 0 -175
0 0 -227 c0 -254 9 -336 46 -403 54 -98 144 -125 404 -118 151 3 169 6 215 28
29 14 63 43 81 66 50 66 56 121 52 460 l-3 300 -37 75 c-38 77 -100 143 -277
298 -41 36 -87 85 -102 110 l-29 45 0 206 c0 147 3 209 12 218 16 16 63 15 77
-1 7 -9 12 -86 13 -213 l3 -199 168 -3 169 -2 -4 247 c-5 283 -12 317 -78 377
-61 55 -115 66 -324 65 -100 -1 -194 -5 -211 -9z"/>
<path d="M6356 2075 c-62 -22 -89 -46 -121 -110 l-30 -60 -3 -402 c-3 -340 -1
-403 11 -403 14 0 37 -40 37 -65 0 -9 -10 -15 -25 -15 l-25 0 1 -260 c1 -147
5 -257 10 -254 5 3 9 14 9 24 0 29 11 50 26 50 20 0 17 17 -5 39 -17 17 -18
21 -4 40 12 18 16 19 28 8 7 -8 12 -27 10 -42 -1 -16 2 -42 7 -59 21 -66 26
-96 17 -102 -5 -3 -9 -1 -9 4 0 6 -9 8 -20 5 -11 -3 -20 -1 -20 4 0 6 -10 10
-22 9 -21 -1 -23 -6 -25 -71 -1 -48 1 -64 7 -50 5 11 9 16 9 10 1 -5 6 -3 11
5 5 8 7 24 4 36 -8 31 41 51 67 28 11 -9 19 -22 19 -27 0 -6 -6 -3 -12 6 -8
10 -18 14 -26 8 -10 -6 -10 -10 2 -20 10 -9 12 -20 6 -42 -5 -17 -5 -29 1 -29
5 0 9 -11 9 -25 0 -29 -25 -34 -32 -7 -3 10 -12 19 -21 19 -9 0 -14 -4 -11 -9
3 -4 -2 -8 -10 -8 -24 0 -26 -14 -15 -76 15 -79 42 -129 89 -163 65 -47 104
-53 345 -49 220 3 220 3 267 31 61 35 94 92 108 182 7 47 10 328 8 860 -4 887
0 843 -78 924 -60 62 -105 71 -349 71 -151 -1 -217 -5 -245 -15z m298 -267
c14 -20 16 -108 16 -755 0 -730 0 -733 -21 -754 -22 -22 -66 -20 -81 4 -4 7
-8 311 -9 677 -1 837 -1 811 18 833 22 24 59 21 77 -5z m-394 -1029 c0 -11 -4
-17 -10 -14 -5 3 -10 13 -10 21 0 8 5 14 10 14 6 0 10 -9 10 -21z m120 -123
c0 -2 -7 -9 -15 -16 -13 -11 -14 -10 -9 4 5 14 24 23 24 12z m-20 -50 c0 -3
-4 -8 -10 -11 -5 -3 -10 -1 -10 4 0 6 5 11 10 11 6 0 10 -2 10 -4z"/>
<path d="M9091 2077 c-19 -6 -54 -29 -77 -51 -70 -68 -75 -102 -72 -443 l3
-288 34 -69 c34 -70 82 -123 273 -302 144 -135 148 -145 148 -406 0 -222 -4
-238 -53 -238 -51 1 -52 3 -57 252 l-5 233 -165 0 -165 0 -3 -250 c-3 -276 4
-328 48 -398 52 -82 81 -91 319 -95 130 -3 219 0 248 8 89 22 156 102 169 201
12 89 15 534 4 598 -22 129 -93 227 -271 372 -55 46 -113 104 -135 135 l-39
56 -3 199 c-2 130 1 205 8 219 12 23 73 29 87 8 4 -7 10 -103 13 -213 l5 -200
163 -3 163 -3 -4 248 c-2 155 -8 262 -15 284 -19 58 -54 102 -102 129 -44 24
-51 25 -265 27 -144 1 -232 -2 -254 -10z m302 -167 c-3 -11 -9 -20 -14 -20
-13 0 -11 14 3 28 9 9 9 12 0 12 -7 0 -12 5 -12 11 0 8 4 8 14 0 8 -7 12 -21
9 -31z m327 -1705 c0 -8 -2 -15 -4 -15 -2 0 -6 7 -10 15 -3 8 -1 15 4 15 6 0
10 -7 10 -15z"/>
<path d="M25 2052 c-3 -7 0 -10 5 -7 6 4 10 -19 10 -60 0 -41 -4 -64 -10 -60
-6 4 -7 -6 -3 -27 7 -40 13 -49 13 -20 0 12 4 22 9 22 11 0 20 -70 9 -76 -4
-3 -8 3 -9 13 0 16 -1 16 -9 -2 -16 -38 -12 -45 28 -43 20 0 63 0 95 0 l57 -2
0 -875 0 -875 178 2 177 3 3 873 2 872 95 0 95 0 0 140 0 140 -123 0 c-72 0
-127 -4 -133 -10 -8 -8 -20 -7 -40 0 -43 17 -442 10 -449 -8z m65 -32 c0 -5
-4 -10 -9 -10 -5 0 -8 -8 -6 -17 1 -10 0 -12 -2 -5 -3 6 -9 12 -15 12 -6 0 -6
6 2 15 14 17 30 20 30 5z m-10 -86 c0 -8 -4 -12 -10 -9 -5 3 -10 13 -10 21 0
8 5 12 10 9 6 -3 10 -13 10 -21z m30 -74 c0 -13 -5 -18 -15 -14 -16 7 -19 17
-8 27 12 13 23 7 23 -13z"/>
<path d="M820 1055 l0 -1015 178 2 177 3 2 440 2 440 56 3 55 3 0 -446 0 -445
178 2 177 3 0 1010 0 1010 -177 3 -178 2 -2 -427 -3 -428 -53 0 -52 0 -3 425
-2 425 -177 3 -178 2 0 -1015z"/>
<path d="M1705 2058 c-3 -7 -4 -463 -3 -1013 l3 -1000 310 0 310 0 0 135 0
135 -132 3 -133 3 0 304 0 305 120 0 120 0 0 140 0 140 -120 0 -120 0 0 290 0
289 133 3 132 3 0 135 0 135 -308 3 c-241 2 -309 0 -312 -10z"/>
<path d="M2710 1060 l0 -1010 88 -1 c232 -1 317 2 324 14 6 9 8 9 8 0 0 -10
26 -13 95 -13 l95 0 0 135 0 135 -136 0 c-126 0 -136 1 -128 18 4 9 9 403 10
875 l2 857 -179 0 -179 0 0 -1010z"/>
<path d="M3550 2054 c0 -14 -28 -301 -165 -1679 -14 -137 -27 -267 -30 -288
l-5 -37 175 0 c160 0 175 1 175 18 0 9 7 122 17 249 l17 233 86 0 86 0 19
-250 18 -250 173 0 173 0 -5 32 c-2 18 -25 246 -49 506 -25 261 -48 493 -50
515 -3 23 -23 240 -45 482 -23 242 -43 450 -46 463 l-4 22 -270 0 c-243 0
-270 -2 -270 -16z m304 -809 c15 -203 27 -380 26 -392 0 -21 -5 -23 -60 -23
l-60 0 0 38 c-1 76 54 762 61 754 3 -4 18 -173 33 -377z m33 -167 c-3 -8 -6
-5 -6 6 -1 11 2 17 5 13 3 -3 4 -12 1 -19z"/>
<path d="M5120 1935 l0 -134 98 -3 97 -3 3 -873 2 -872 180 0 180 0 0 875 0
875 95 0 95 0 0 135 0 135 -375 0 -375 0 0 -135z"/>
<path d="M7090 1055 l0 -1015 175 0 175 0 0 445 0 444 123 3 122 3 -1 135 -2
135 -118 5 -119 5 0 285 0 285 133 3 133 3 -3 137 -3 137 -307 3 -308 2 0
-1015z"/>
<path d="M8057 2064 c-4 -4 -7 -412 -7 -908 0 -1023 -3 -984 76 -1063 67 -67
111 -75 372 -71 l219 3 48 30 c63 39 92 94 105 200 7 52 10 388 8 945 l-3 865
-177 3 -178 2 0 -875 c0 -862 0 -875 -20 -895 -23 -23 -29 -24 -64 -10 l-26 9
-2 883 -3 883 -171 3 c-93 1 -173 -1 -177 -4z"/>
<path d="M6250 635 c0 -8 4 -15 10 -15 5 0 7 7 4 15 -4 8 -8 15 -10 15 -2 0
-4 -7 -4 -15z"/>
<path d="M6235 529 c-4 -6 -5 -12 -2 -15 2 -3 7 2 10 11 7 17 1 20 -8 4z"/>
<path d="M6246 383 c-6 -14 -5 -15 5 -6 7 7 10 15 7 18 -3 3 -9 -2 -12 -12z"/>
</g>
</svg>
